<svg aria-hidden="true" style="position: absolute; width: 0; height: 0; overflow: hidden;" version="1.1" xmlns="http://www.w3.org/2000/svg" xmlns:xlink="http://www.w3.org/1999/xlink">
<defs>
<symbol id="icon-envelope-1" viewBox="0 0 43 32">
<path d="M38.667 0h-34.667c-2.206 0-4 1.794-4 4v24c0 2.206 1.794 4 4 4h34.667c2.206 0 4-1.794 4-4v-24c0-2.206-1.794-4-4-4zM38.667 2.667c0.181 0 0.353 0.038 0.511 0.103l-17.844 15.466-17.844-15.466c0.158-0.066 0.33-0.103 0.511-0.103h34.667zM38.667 29.333h-34.667c-0.736 0-1.333-0.598-1.333-1.333v-22.413l17.793 15.421c0.251 0.217 0.563 0.326 0.874 0.326s0.622-0.108 0.874-0.326l17.793-15.421v22.413c0 0.736-0.598 1.333-1.333 1.333z"></path>
</symbol>
<symbol id="icon-facebuke" viewBox="0 0 18 32">
<path d="M13.329 5.313h2.921v-5.088c-0.504-0.069-2.237-0.225-4.256-0.225-4.212 0-7.097 2.649-7.097 7.519v4.481h-4.648v5.688h4.648v14.312h5.699v-14.311h4.46l0.708-5.688h-5.169v-3.919c0.001-1.644 0.444-2.769 2.735-2.769z"></path>
</symbol>
<symbol id="icon-group4" viewBox="0 0 43 32">
<path d="M3.239 26.373c0.166 0.188 0.254 0.424 0.25 0.665 0.001 0.015 0.001 0.033 0.001 0.050 0 0.149-0.033 0.29-0.093 0.416l0.003-0.006c-0.072 0.152-0.172 0.279-0.296 0.378l-0.002 0.002c-0.282 0.194-0.631 0.31-1.007 0.31-0.041 0-0.082-0.001-0.123-0.004l0.006 0h-1.977v-4.214h1.936c0.034-0.002 0.074-0.004 0.115-0.004 0.356 0 0.688 0.106 0.965 0.287l-0.007-0.004c0.125 0.097 0.225 0.218 0.289 0.354 0.065 0.138 0.095 0.286 0.086 0.436 0.011 0.232-0.068 0.461-0.225 0.644-0.15 0.168-0.358 0.283-0.59 0.33 0.262 0.044 0.499 0.172 0.667 0.361zM0.92 25.737h0.828c0.188 0.012 0.374-0.037 0.526-0.14 0.060-0.050 0.108-0.113 0.14-0.184l0.001-0.003c0.024-0.054 0.038-0.118 0.038-0.185 0-0.014-0.001-0.028-0.002-0.042l0 0.002c0.001-0.011 0.001-0.023 0.001-0.035 0-0.068-0.014-0.133-0.040-0.192l0.001 0.003c-0.033-0.075-0.079-0.137-0.138-0.187l-0.001-0.001c-0.134-0.091-0.298-0.145-0.476-0.145-0.023 0-0.046 0.001-0.069 0.003l0.003-0h-0.815v1.106zM2.355 27.353c0.065-0.051 0.116-0.116 0.151-0.19l0.001-0.003c0.028-0.059 0.044-0.128 0.044-0.202 0-0.012-0-0.023-0.001-0.035l0 0.002c0.001-0.009 0.001-0.020 0.001-0.031 0-0.075-0.017-0.147-0.047-0.21l0.001 0.003c-0.037-0.078-0.090-0.143-0.154-0.193l-0.001-0.001c-0.142-0.097-0.318-0.154-0.507-0.154-0.019 0-0.039 0.001-0.058 0.002l0.003-0h-0.868v1.16h0.88c0.197 0.010 0.394-0.041 0.556-0.146zM7.197 28.185l-1.076-1.648h-0.405v1.648h-0.927v-4.215h1.755c0.037-0.003 0.081-0.004 0.125-0.004 0.413 0 0.794 0.136 1.1 0.366l-0.005-0.003c0.245 0.229 0.394 0.53 0.417 0.85 0.002 0.026 0.003 0.057 0.003 0.088 0 0.307-0.109 0.589-0.291 0.808l0.002-0.002c-0.218 0.224-0.506 0.378-0.829 0.427l-0.008 0.001 1.147 1.684h-1.008zM5.715 25.963h0.758c0.526 0 0.79-0.212 0.79-0.638 0.001-0.010 0.001-0.022 0.001-0.034 0-0.080-0.016-0.156-0.045-0.225l0.001 0.004c-0.036-0.086-0.087-0.159-0.15-0.218l-0-0c-0.144-0.109-0.326-0.174-0.523-0.174-0.026 0-0.051 0.001-0.077 0.003l0.003-0h-0.767l0.009 1.283zM12.262 27.336h-1.846l-0.326 0.849h-0.972l1.695-4.168h1.051l1.689 4.168h-0.971l-0.319-0.848zM12.015 26.698l-0.675-1.779-0.675 1.779h1.349zM18.602 28.185h-0.919l-2.063-2.866v2.866h-0.918v-4.216h0.918l2.063 2.883v-2.883h0.919v4.216zM23.852 27.176c-0.191 0.318-0.48 0.577-0.833 0.744-0.358 0.168-0.777 0.267-1.219 0.267-0.026 0-0.053-0-0.079-0.001l0.004 0h-1.637v-4.215h1.637c0.023-0.001 0.050-0.001 0.077-0.001 0.441 0 0.859 0.096 1.235 0.267l-0.019-0.008c0.352 0.163 0.642 0.419 0.832 0.735 0.189 0.343 0.288 0.722 0.288 1.106s-0.099 0.763-0.288 1.106zM22.8 27.075c0.25-0.261 0.404-0.616 0.406-1.006v-0c0-0.369-0.144-0.726-0.406-1.006-0.285-0.226-0.65-0.362-1.047-0.362-0.037 0-0.074 0.001-0.11 0.004l0.005-0h-0.639v2.729h0.639c0.032 0.002 0.069 0.003 0.106 0.003 0.396 0 0.761-0.136 1.050-0.364l-0.004 0.003zM12.838 0.522s11.873 4.104 11.621 10.043v10.045s-11.864-4.106-11.617-10.045l-0.004-10.043zM35.037 18.259c2.243-1.413 4.836-2.288 7.544-2.545v-3.146c-3.12 1.102-5.767 3.098-7.544 5.691z"></path>
<path d="M33.69 19.207c1.835-3.384 5.017-5.995 8.891-7.297v-9.061s-16.909 5.846-16.552 14.304v14.302s0.754-0.261 1.939-0.752c0-0.457 0-0.918 0.054-1.382 0.349-3.926 2.388-7.564 5.667-10.115z"></path>
<path d="M32.082 24.52c0.089-0.992 0.287-1.973 0.592-2.928-2.043 2.203-3.279 4.936-3.536 7.816-0.025 0.272-0.039 0.543-0.045 0.824 1.41-0.617 2.478-1.142 3.524-1.703l-0.273 0.133c-0.3-1.362-0.388-2.757-0.263-4.142zM32.754 24.571c-0.033 0.348-0.052 0.752-0.052 1.161 0 0.917 0.095 1.811 0.276 2.674l-0.015-0.084c4.62-2.531 9.811-6.442 9.61-11.168v-0.412c-3.301 0.338-6.388 1.659-8.79 3.76-0.53 1.19-0.895 2.571-1.026 4.019l-0.004 0.051z"></path>
</symbol>
<symbol id="icon-instagram2inst" viewBox="0 0 32 32">
<path d="M31.968 9.408c-0.024-1.403-0.292-2.735-0.763-3.968l0.027 0.080c-0.427-1.109-1.058-2.054-1.854-2.83l-0.002-0.002c-0.8-0.8-1.76-1.44-2.832-1.84-1.151-0.448-2.483-0.721-3.875-0.752l-0.013-0c-1.458-0.070-3.167-0.109-4.885-0.109-0.6 0-1.199 0.005-1.797 0.014l0.090-0.001c-4.352 0-4.896 0.016-6.592 0.096-1.712 0.064-2.88 0.352-3.888 0.736-1.072 0.416-2.032 1.040-2.832 1.856-0.816 0.8-1.44 1.76-1.856 2.832-0.443 1.152-0.711 2.485-0.736 3.877l-0 0.011c-0.070 1.458-0.109 3.167-0.109 4.885 0 0.6 0.005 1.199 0.014 1.797l-0.001-0.090c0 4.352 0 4.896 0.080 6.592 0.030 1.405 0.303 2.737 0.779 3.968l-0.027-0.080c0.4 1.072 1.040 2.032 1.856 2.832 0.8 0.816 1.76 1.44 2.832 1.856 1.008 0.384 2.176 0.656 3.872 0.736 1.712 0.080 2.24 0.096 6.592 0.096s4.896-0.016 6.608-0.096c1.397-0.026 2.724-0.294 3.952-0.763l-0.080 0.027c2.16-0.851 3.837-2.528 4.669-4.633l0.019-0.055c0.384-1.024 0.672-2.176 0.736-3.888 0.080-1.696 0.096-2.24 0.096-6.592 0-4.336 0-4.88-0.080-6.592zM29.088 22.48c-0.064 1.552-0.32 2.4-0.544 2.96-0.552 1.401-1.639 2.488-3.004 3.027l-0.036 0.013c-0.56 0.224-1.424 0.48-2.976 0.544-1.68 0.080-2.192 0.096-6.464 0.096-0.465 0.007-1.013 0.011-1.562 0.011-1.724 0-3.439-0.039-5.144-0.116l0.242 0.009c-1.568-0.064-2.4-0.32-2.96-0.544-0.722-0.271-1.337-0.68-1.839-1.199l-0.001-0.001c-0.518-0.5-0.926-1.108-1.189-1.79l-0.011-0.034c-0.336-0.884-0.535-1.905-0.544-2.972l-0-0.004c-0.068-1.463-0.107-3.179-0.107-4.903 0-0.549 0.004-1.097 0.012-1.643l-0.001 0.083c0-4.272 0.016-4.784 0.096-6.464 0.064-1.568 0.32-2.4 0.544-2.976 0.256-0.688 0.656-1.312 1.2-1.824 0.504-0.519 1.118-0.928 1.806-1.189l0.034-0.011c0.56-0.224 1.408-0.48 2.976-0.544 1.68-0.080 2.192-0.096 6.448-0.096 4.288 0 4.8 0 6.464 0.096 1.568 0.064 2.4 0.32 2.976 0.544 0.688 0.256 1.328 0.656 1.84 1.2 0.528 0.512 0.944 1.136 1.2 1.824 0.208 0.576 0.48 1.424 0.544 2.976 0.080 1.68 0.096 2.192 0.096 6.464s-0.016 4.768-0.096 6.464z"></path>
<path d="M16.064 7.776c-4.542 0-8.224 3.682-8.224 8.224s3.682 8.224 8.224 8.224v0c4.542 0 8.224-3.682 8.224-8.224s-3.682-8.224-8.224-8.224v0zM16.064 21.328c-2.943 0-5.328-2.385-5.328-5.328s2.385-5.328 5.328-5.328v0c2.943 0 5.328 2.385 5.328 5.328s-2.385 5.328-5.328 5.328v0zM26.528 7.456c0 1.060-0.86 1.92-1.92 1.92s-1.92-0.86-1.92-1.92v0c0-1.060 0.86-1.92 1.92-1.92s1.92 0.86 1.92 1.92v0z"></path>
</symbol>
<symbol id="icon-linkedin1in" viewBox="0 0 32 32">
<path d="M32 32v-11.744c0-5.728-1.232-10.16-7.952-10.16-0.076-0.003-0.166-0.005-0.256-0.005-2.555 0-4.788 1.376-5.999 3.428l-0.018 0.032h-0.096v-2.912h-6.368v21.36h6.64v-10.576c0-2.784 0.528-5.488 3.968-5.488 3.408 0 3.456 3.184 3.456 5.664v10.4h6.624zM0.528 10.64h6.64v21.36h-6.64v-21.36zM3.84 0c-2.121 0-3.84 1.719-3.84 3.84v0c-0 0.005-0 0.010-0 0.016 0 2.127 1.715 3.854 3.838 3.872h0.002c2.128 0 3.84-1.76 3.84-3.888 0-2.121-1.719-3.84-3.84-3.84v0z"></path>
</symbol>
<symbol id="icon-Logo" viewBox="0 0 57 32">
<path d="M19.413 26.187l0.027 0.005 0.021 0.011 0.117 0.112c-0.091 0.091-0.203 0.16-0.325 0.213-0.149 0.053-0.309 0.080-0.464 0.075-0.149 0-0.299-0.021-0.437-0.069-0.246-0.085-0.439-0.268-0.537-0.501l-0.002-0.006c-0.050-0.117-0.080-0.254-0.080-0.397s0.029-0.28 0.082-0.404l-0.003 0.007c0.053-0.112 0.128-0.219 0.229-0.309 0.096-0.085 0.213-0.155 0.347-0.197 0.134-0.048 0.289-0.076 0.451-0.076 0.15 0 0.294 0.024 0.428 0.069l-0.010-0.003c0.112 0.043 0.219 0.107 0.309 0.181l-0.096 0.117c-0.007 0.009-0.016 0.016-0.026 0.021l-0 0c-0.010 0.007-0.023 0.011-0.037 0.011-0 0-0 0-0 0h0c-0.016-0.002-0.031-0.008-0.043-0.016l0 0-0.053-0.032-0.069-0.037c-0.107-0.054-0.234-0.086-0.368-0.086-0.013 0-0.026 0-0.040 0.001l0.002-0c-0.107 0-0.219 0.016-0.32 0.053-0.19 0.065-0.339 0.206-0.414 0.385l-0.002 0.005c-0.040 0.091-0.063 0.197-0.064 0.309v0c0 0.107 0.021 0.219 0.059 0.32 0.073 0.181 0.219 0.32 0.401 0.383l0.005 0.001c0.096 0.032 0.197 0.053 0.299 0.053l0.176-0.011c0.148-0.016 0.28-0.076 0.385-0.166l-0.001 0.001c0.014-0.012 0.033-0.020 0.053-0.021h0zM22.773 25.627c0 0.139-0.021 0.267-0.075 0.395-0.053 0.112-0.123 0.213-0.219 0.304-0.101 0.091-0.213 0.16-0.347 0.203-0.283 0.096-0.597 0.096-0.885 0-0.132-0.047-0.245-0.116-0.342-0.203l0.001 0.001c-0.092-0.085-0.166-0.188-0.216-0.304l-0.002-0.006c-0.107-0.251-0.107-0.533 0-0.784 0.053-0.117 0.123-0.219 0.219-0.309 0.101-0.085 0.213-0.149 0.341-0.197 0.132-0.046 0.284-0.072 0.443-0.072s0.311 0.026 0.452 0.075l-0.010-0.003c0.128 0.048 0.245 0.117 0.347 0.203 0.181 0.166 0.294 0.404 0.294 0.668 0 0.011-0 0.021-0.001 0.032l0-0.002zM22.469 25.627c0-0.107-0.016-0.213-0.053-0.315-0.071-0.181-0.215-0.32-0.395-0.383l-0.005-0.001c-0.096-0.032-0.206-0.051-0.32-0.051s-0.224 0.019-0.327 0.053l0.007-0.002c-0.097 0.033-0.181 0.084-0.251 0.15l0-0c-0.069 0.064-0.123 0.142-0.158 0.23l-0.002 0.004c-0.069 0.208-0.069 0.427 0 0.635 0.071 0.183 0.218 0.322 0.401 0.383l0.005 0.001c0.208 0.064 0.437 0.064 0.64 0 0.096-0.037 0.181-0.085 0.251-0.149 0.069-0.069 0.123-0.149 0.155-0.235 0.037-0.107 0.053-0.213 0.053-0.32zM25.067 25.957l0.032 0.075 0.032-0.075 0.037-0.069 0.747-1.173c0.011-0.016 0.027-0.032 0.037-0.032 0.019-0.007 0.041-0.011 0.064-0.011v0h0.219v1.909h-0.261v-1.525l-0.747 1.189c-0.010 0.018-0.025 0.033-0.042 0.042l-0.001 0c-0.018 0.010-0.040 0.016-0.063 0.016-0 0-0 0-0.001 0h-0.043c-0.001 0-0.001 0-0.002 0-0.023 0-0.044-0.006-0.063-0.016l0.001 0c-0.018-0.010-0.033-0.025-0.042-0.042l-0-0.001-0.768-1.2v1.536h-0.256v-1.909h0.224c0.016 0 0.037 0 0.059 0.011 0.016 0.005 0.032 0.016 0.043 0.032l0.757 1.173 0.037 0.069zM27.861 25.867v0.715h-0.288v-1.909h0.645c0.123 0 0.245 0.016 0.363 0.043 0.096 0.021 0.181 0.064 0.256 0.117 0.064 0.053 0.117 0.117 0.149 0.187 0.032 0.080 0.053 0.16 0.048 0.245 0 0.002 0 0.003 0 0.005 0 0.174-0.083 0.328-0.212 0.426l-0.001 0.001c-0.075 0.059-0.16 0.107-0.256 0.128-0.102 0.030-0.219 0.048-0.34 0.048-0.004 0-0.008-0-0.013-0h0.001l-0.352-0.005zM27.861 25.659h0.352c0.080 0 0.155-0.005 0.229-0.027 0.061-0.020 0.115-0.049 0.161-0.086l-0.001 0.001c0.082-0.068 0.133-0.17 0.133-0.284 0-0.002 0-0.003-0-0.005v0c0-0.006 0.001-0.013 0.001-0.020 0-0.047-0.010-0.091-0.028-0.131l0.001 0.002c-0.026-0.053-0.062-0.098-0.106-0.133l-0.001-0.001c-0.107-0.075-0.245-0.107-0.389-0.101h-0.352v0.784zM31.771 26.581h-0.229c-0.002 0-0.005 0-0.007 0-0.021 0-0.041-0.006-0.057-0.017l0 0c-0.016-0.011-0.028-0.025-0.037-0.042l-0-0.001-0.197-0.464h-0.992l-0.208 0.464c-0.007 0.017-0.018 0.031-0.032 0.043l-0 0c-0.016 0.010-0.036 0.017-0.057 0.017-0.004 0-0.008-0-0.013-0.001l0 0h-0.229l0.875-1.909h0.304l0.88 1.909zM30.331 25.872h0.821l-0.347-0.773c-0.027-0.059-0.048-0.123-0.064-0.181l-0.032 0.101-0.032 0.080-0.347 0.773zM33.029 24.683l0.043 0.032 1.275 1.44v-1.483h0.256v1.909h-0.144c-0.021 0-0.043 0-0.059-0.011-0.019-0.010-0.035-0.022-0.048-0.037l-0-0-1.269-1.44v1.488h-0.261v-1.909h0.16c0.011 0 0.032 0 0.048 0.011zM36.747 25.824v0.757h-0.288v-0.757l-0.805-1.152h0.261c0.002-0 0.005-0 0.007-0 0.021 0 0.041 0.006 0.057 0.017l-0-0 0.037 0.043 0.501 0.747c0.032 0.047 0.062 0.101 0.088 0.158l0.003 0.007 0.037-0.080 0.053-0.085 0.491-0.747c0.011-0.016 0.023-0.030 0.037-0.042l0-0c0.016-0.013 0.037-0.021 0.060-0.021 0.001 0 0.002 0 0.004 0h0.266l-0.811 1.157zM24.923 21.472l0.384 0.032c1.947-0.747 3.565-1.984 4.754-3.562l0.020-0.027c1.060-1.413 1.697-3.195 1.697-5.127 0-0.054-0-0.107-0.001-0.161l0 0.008-2.165-1.877c0.443 1.989 0.235 4.043-0.592 5.936-0.907 1.983-2.311 3.605-4.054 4.753l-0.042 0.026z"></path>
<path d="M24.149 21.387l0.059 0.005c1.973-1.227 3.483-2.939 4.32-4.923 0.478-1.079 0.756-2.337 0.756-3.66 0-0.898-0.128-1.765-0.367-2.586l0.016 0.065-3.083-2.672c0.96 1.642 1.527 3.616 1.527 5.722 0 0.483-0.030 0.959-0.088 1.427l0.006-0.056c-0.351 2.604-1.485 4.894-3.153 6.679l0.006-0.007zM34.597 14.843c-0.599 2.176-1.882 3.994-3.6 5.256l-0.027 0.019c-0.533 0.405-1.109 0.763-1.717 1.072 1.488-0.379 2.859-1.051 4-1.963 1.103-0.874 1.982-1.982 2.569-3.252l0.023-0.055-1.248-1.077z"></path>
<path d="M34.107 14.539l-1.781-1.547c-0.047 1.877-0.666 3.6-1.687 5.013l0.018-0.026c-1.113 1.534-2.58 2.746-4.284 3.529l-0.068 0.028h0.011c0.4 0 0.8-0.021 1.195-0.059 1.692-0.597 3.134-1.537 4.301-2.744l0.003-0.003c1.093-1.13 1.895-2.549 2.281-4.13l0.013-0.062zM24.411 6.485l-2.123-1.845c-1.894 0.624-3.485 1.738-4.674 3.193l-0.014 0.018c-1.089 1.342-1.754 3.066-1.771 4.946l-0 0.004c0.028 2.083 0.84 3.971 2.154 5.386l-0.005-0.005c1.429 1.538 3.31 2.637 5.431 3.087l0.068 0.012c1.84-1.897 3.041-4.423 3.251-7.225l0.002-0.039c0.012-0.192 0.018-0.416 0.018-0.642 0-2.604-0.88-5.003-2.358-6.915l0.019 0.026zM39.008 14.256c-0.005-2.32-1.067-4.533-2.955-6.176-1.884-1.596-4.342-2.566-7.027-2.566-0.027 0-0.054 0-0.081 0l0.004-0c-1.232 0-2.453 0.197-3.605 0.587l12.992 11.28c0.423-0.919 0.67-1.993 0.672-3.125v-0.001z"></path>
</symbol>
<symbol id="icon-Logo2" viewBox="0 0 57 32">
<path d="M26.725 3.163h-0.069l-0.336-0.011h-0.245c-0.015-0-0.034-0-0.052-0-0.226 0-0.45 0.006-0.672 0.017l0.031-0.001c-1.941 0.107-3.84 0.597-5.605 1.429l-0.229 0.112v11.808l0.539-0.181c1.729-0.623 3.724-0.994 5.802-1.019l0.011-0v1.552l-0.565 0.016h-0.043c-2.689 0.149-5.175 0.892-7.369 2.098l0.089-0.045v-15.152c1.196-0.71 2.58-1.288 4.045-1.662l0.11-0.024c1.172-0.314 2.518-0.497 3.907-0.501h0.232c0.973 0.003 1.916 0.129 2.814 0.364l-0.078-0.017v1.531c-0.544-0.134-1.188-0.236-1.848-0.286l-0.040-0.002h-0.037c-0.133-0.011-0.267-0.027-0.389-0.027zM29.413 4.725c0.301 0.019 0.653 0.030 1.008 0.030 1.474 0 2.904-0.19 4.266-0.547l-0.117 0.026c1.503-0.383 2.82-0.911 4.045-1.586l-0.087 0.044v14.875c-1.196 0.711-2.579 1.291-4.044 1.667l-0.11 0.024c-1.28 0.325-2.592 0.496-3.909 0.501-0.027 0-0.059 0-0.091 0-1.023 0-2.015-0.128-2.963-0.37l0.083 0.018v-14.971c0.553 0.135 1.209 0.238 1.881 0.286l0.039 0.002zM36.987 4.843l-0.539 0.181c-1.791 0.645-3.858 1.017-6.011 1.017-0.337 0-0.673-0.009-1.006-0.027l0.046 0.002-0.437-0.027v12.144l0.373 0.032c0.309 0.024 0.669 0.037 1.031 0.037 1.263 0 2.488-0.163 3.655-0.47l-0.1 0.022c1.056-0.271 1.972-0.612 2.84-1.036l-0.088 0.039 0.235-0.107v-11.808z"></path>
<path d="M19.061 24.112c-0.145-0.148-0.348-0.241-0.572-0.241-0.011 0-0.022 0-0.032 0.001l0.002-0c-0.117 0-0.235 0.021-0.347 0.064-0.3 0.12-0.508 0.408-0.508 0.745 0 0.014 0 0.028 0.001 0.041l-0-0.002v2.027c0 0.139 0.021 0.283 0.080 0.411 0.053 0.107 0.117 0.197 0.203 0.272 0.080 0.069 0.176 0.117 0.277 0.144s0.203 0.043 0.304 0.043c0.464-0.009 0.837-0.388 0.837-0.853 0-0 0-0 0-0v0-0.224h-0.533v0.176c0.005 0.064 0 0.128-0.027 0.181-0.017 0.046-0.042 0.085-0.075 0.117v0c-0.060 0.046-0.136 0.073-0.218 0.075h-0c-0.011 0.002-0.023 0.002-0.036 0.002-0.088 0-0.166-0.043-0.215-0.108l-0-0.001c-0.047-0.073-0.075-0.162-0.075-0.257 0-0.005 0-0.010 0-0.015l-0 0.001v-1.888c0-0.107 0.021-0.208 0.069-0.299 0.048-0.075 0.131-0.124 0.226-0.124 0.011 0 0.021 0.001 0.032 0.002l-0.001-0c0.003-0 0.006-0 0.009-0 0.092 0 0.173 0.044 0.225 0.111l0 0.001c0.057 0.072 0.091 0.163 0.091 0.263 0 0.001 0 0.003-0 0.004v-0 0.181h0.523v-0.208c0-0.002 0-0.005 0-0.007 0-0.243-0.091-0.465-0.241-0.634l0.001 0.001zM22.203 24.091c-0.162-0.136-0.374-0.219-0.604-0.219-0.112 0-0.22 0.020-0.32 0.055l0.007-0.002c-0.107 0.037-0.197 0.091-0.277 0.16-0.091 0.085-0.16 0.181-0.208 0.288-0.053 0.123-0.080 0.256-0.075 0.395v1.936c-0.005 0.139 0.021 0.272 0.075 0.4 0.048 0.107 0.117 0.197 0.208 0.267 0.080 0.080 0.171 0.139 0.277 0.176 0.094 0.035 0.202 0.055 0.315 0.055s0.221-0.020 0.321-0.057l-0.006 0.002c0.329-0.114 0.562-0.421 0.562-0.783 0-0.019-0.001-0.038-0.002-0.057l0 0.003v-1.941c0.001-0.011 0.001-0.024 0.001-0.038 0-0.252-0.107-0.48-0.278-0.639l-0-0zM21.957 26.704c0.001 0.009 0.001 0.019 0.001 0.029 0 0.1-0.041 0.189-0.108 0.253l-0 0c-0.067 0.055-0.153 0.089-0.248 0.089s-0.181-0.034-0.249-0.090l0.001 0c-0.067-0.063-0.108-0.153-0.108-0.252 0-0.011 0-0.022 0.002-0.033l-0 0.001v-1.936c-0.001-0.009-0.001-0.020-0.001-0.031 0-0.099 0.041-0.188 0.108-0.251l0-0c0.067-0.055 0.153-0.089 0.248-0.089s0.181 0.034 0.249 0.090l-0.001-0c0.067 0.063 0.108 0.153 0.108 0.252 0 0.011-0 0.022-0.002 0.033l0-0.001v1.936zM26.331 27.573v-3.68h-0.512l-0.667 1.947h-0.011l-0.672-1.947h-0.501v3.675h0.523v-2.24h0.011l0.512 1.584h0.267l0.517-1.579h0.005v2.235h0.528zM29.312 24.16c-0.080-0.096-0.181-0.16-0.299-0.203-0.109-0.037-0.234-0.059-0.365-0.059-0.005 0-0.010 0-0.015 0h-0.778v3.675h0.523v-1.44h0.267c0.165 0.011 0.325-0.021 0.475-0.096 0.212-0.132 0.361-0.347 0.405-0.597l0.001-0.005c0.021-0.124 0.032-0.266 0.032-0.411 0-0.187-0.020-0.369-0.057-0.545l0.003 0.017c-0.036-0.134-0.103-0.249-0.192-0.342l0 0zM29.045 25.28c-0.005 0.064-0.021 0.128-0.053 0.187-0.032 0.053-0.075 0.107-0.133 0.128-0.068 0.034-0.148 0.053-0.233 0.053-0.004 0-0.009-0-0.013-0h-0.239v-1.253h0.267c0.085 0 0.16 0.011 0.24 0.048 0.053 0.027 0.096 0.075 0.123 0.133 0.026 0.060 0.042 0.129 0.043 0.202v0.502zM31.787 23.899h-0.427l-0.8 3.675h0.523l0.155-0.789h0.709l0.16 0.789h0.517l-0.827-3.675zM31.307 26.283l0.261-1.333h0.005l0.256 1.333h-0.523zM35.173 26.112h-0.011l-0.789-2.213h-0.501v3.675h0.523v-2.208h0.011l0.795 2.208h0.491v-3.68h-0.523v2.213zM38.373 23.899l-0.427 1.461h-0.005l-0.427-1.461h-0.549l0.72 2.123v1.547h0.523v-1.547l0.72-2.123h-0.555zM17.6 28.608h0.251v0.709h0.171v-0.709h0.251v-0.144h-0.672v0.144zM19.723 28.464l-0.331 0.853h0.181l0.069-0.192h0.341l0.069 0.192h0.187l-0.336-0.853h-0.181zM19.696 28.981l0.112-0.32 0.117 0.32h-0.229zM21.813 29.003h0.203v0.107c-0.055 0.046-0.125 0.073-0.202 0.075h-0c-0.004 0-0.009 0-0.014 0-0.067 0-0.128-0.031-0.167-0.080l-0-0c-0.040-0.057-0.065-0.128-0.065-0.205 0-0.007 0-0.013 0.001-0.020l-0 0.001c0-0.187 0.080-0.283 0.245-0.283 0.005-0 0.011-0.001 0.017-0.001 0.083 0 0.154 0.056 0.175 0.133l0 0.001 0.171-0.032c-0.037-0.165-0.16-0.251-0.363-0.251-0.005-0-0.010-0-0.016-0-0.109 0-0.208 0.041-0.283 0.107l0-0c-0.077 0.076-0.124 0.18-0.124 0.296 0 0.012 0 0.024 0.002 0.036l-0-0.002c0 0.117 0.032 0.235 0.107 0.32 0.076 0.079 0.183 0.129 0.301 0.129 0.009 0 0.017-0 0.026-0.001l-0.001 0c0.133 0 0.267-0.048 0.363-0.139v-0.336h-0.373v0.144zM23.957 28.464h-0.171v0.853h0.597v-0.144h-0.427v-0.709zM25.771 28.464h-0.176v0.853h0.176v-0.853zM27.541 29.035l-0.352-0.571h-0.165v0.853h0.16v-0.555l0.341 0.555h0.171v-0.853h-0.16v0.571zM29.141 28.944h0.427v-0.144h-0.427v-0.192h0.453v-0.144h-0.629v0.853h0.651v-0.144h-0.48v-0.229zM33.019 28.8h-0.336v-0.336h-0.171v0.853h0.171v-0.373h0.336v0.373h0.171v-0.853h-0.171v0.336zM34.629 28.944h0.427v-0.144h-0.427v-0.192h0.459v-0.144h-0.629v0.853h0.645v-0.144h-0.475v-0.229zM36.811 28.944c0.149-0.027 0.224-0.107 0.224-0.24 0.001-0.007 0.001-0.016 0.001-0.024 0-0.066-0.032-0.125-0.081-0.162l-0.001-0c-0.064-0.034-0.141-0.054-0.222-0.054-0.010 0-0.020 0-0.030 0.001l0.001-0h-0.363v0.853h0.171v-0.357h0.032c0.037 0 0.075 0.005 0.107 0.021 0.027 0.016 0.053 0.037 0.064 0.064l0.187 0.267h0.203l-0.107-0.16c-0.043-0.085-0.107-0.16-0.187-0.213zM36.64 28.827h-0.128v-0.213h0.133c0.059-0.005 0.123 0 0.176 0.016 0.027 0.020 0.044 0.051 0.044 0.086 0 0.038-0.019 0.071-0.049 0.090l-0 0c-0.043 0.014-0.093 0.022-0.145 0.022-0.011 0-0.021-0-0.032-0.001l0.001 0zM38.459 28.944h0.427v-0.144h-0.427v-0.192h0.459v-0.144h-0.629v0.853h0.645v-0.144h-0.475v-0.229z"></path>
</symbol>
<symbol id="icon-Logo3" viewBox="0 0 57 32">
<path d="M12.88 11.253c-1.28 0-2.32 0.923-2.32 2.059 0 1.141 1.040 2.059 2.315 2.059 1.28 0 2.32-0.917 2.32-2.059 0-1.136-1.040-2.059-2.315-2.059zM29.973 10.597c-0.005-1.579-0.715-3.093-1.973-4.213-1.248-1.084-2.889-1.744-4.684-1.744-0.016 0-0.033 0-0.049 0h0.003c-1.776 0-3.483 0.629-4.736 1.749-1.191 1.025-1.948 2.526-1.973 4.204l-0 0.004v8.704s13.413-1.328 13.413-8.704zM5.867 22.16c0 1.099 0.496 2.149 1.371 2.928 0.869 0.756 2.013 1.216 3.263 1.216 0.010 0 0.019-0 0.029-0h-0.001c1.237 0 2.421-0.437 3.296-1.216 0.827-0.714 1.353-1.758 1.371-2.925l0-0.003v-6.053s-9.328 0.923-9.328 6.053zM10.528 23.243c-0.24 0-0.48-0.059-0.677-0.181-0.195-0.114-0.348-0.28-0.445-0.479l-0.003-0.007c-0.059-0.122-0.093-0.265-0.093-0.416 0-0.076 0.009-0.149 0.025-0.22l-0.001 0.007c0.048-0.213 0.16-0.4 0.336-0.555 0.17-0.15 0.382-0.255 0.616-0.297l0.008-0.001c0.235-0.037 0.48-0.016 0.704 0.064s0.416 0.219 0.549 0.4c0.127 0.166 0.204 0.377 0.204 0.606 0 0.306-0.137 0.579-0.352 0.763l-0.001 0.001c-0.117 0.107-0.251 0.181-0.4 0.24-0.149 0.053-0.304 0.080-0.469 0.080zM19.957 22.645h-0.901v0.933h-0.469v-2.277h1.483v0.379h-1.013v0.587h0.901v0.379zM22.208 22.491c0 0.224-0.037 0.421-0.117 0.587-0.141 0.317-0.453 0.534-0.816 0.534-0.011 0-0.022-0-0.034-0.001l0.002 0c-0.009 0-0.021 0.001-0.032 0.001-0.362 0-0.674-0.212-0.819-0.518l-0.002-0.006c-0.074-0.161-0.118-0.35-0.118-0.549 0-0.013 0-0.026 0.001-0.039l-0 0.002v-0.101c0-0.229 0.037-0.427 0.123-0.592 0.146-0.317 0.461-0.534 0.826-0.534 0.008 0 0.015 0 0.023 0l-0.001-0c0.187 0 0.357 0.048 0.501 0.139 0.149 0.091 0.267 0.224 0.341 0.395 0.085 0.165 0.123 0.363 0.123 0.587v0.107zM21.733 22.384c0-0.235-0.043-0.416-0.128-0.539-0.076-0.113-0.203-0.187-0.347-0.187-0.005 0-0.011 0-0.016 0l0.001-0c-0.16 0-0.283 0.059-0.368 0.181s-0.128 0.304-0.128 0.539v0.112c0 0.235 0.043 0.411 0.128 0.539s0.213 0.192 0.373 0.192c0.155 0 0.272-0.059 0.357-0.181s0.128-0.304 0.128-0.539v-0.112zM23.728 22.981c0-0.091-0.032-0.16-0.091-0.203-0.098-0.064-0.212-0.115-0.333-0.147l-0.008-0.002c-0.16-0.053-0.288-0.107-0.384-0.16-0.256-0.139-0.389-0.325-0.389-0.56 0-0.128 0.037-0.235 0.107-0.331s0.165-0.171 0.299-0.229c0.128-0.053 0.272-0.080 0.437-0.080 0.16 0 0.304 0.032 0.432 0.091 0.128 0.053 0.224 0.139 0.299 0.251 0.069 0.107 0.107 0.229 0.107 0.363h-0.469c0-0.107-0.037-0.187-0.101-0.24-0.069-0.057-0.157-0.091-0.254-0.091-0.008 0-0.016 0-0.024 0.001l0.001-0c-0.007-0-0.016-0.001-0.025-0.001-0.091 0-0.174 0.028-0.244 0.076l0.001-0.001c-0.058 0.042-0.096 0.11-0.096 0.187 0 0.002 0 0.004 0 0.006v-0c0 0.075 0.037 0.133 0.112 0.187 0.075 0.048 0.187 0.096 0.331 0.139 0.267 0.080 0.459 0.181 0.587 0.299 0.117 0.117 0.176 0.267 0.176 0.443 0 0.197-0.069 0.352-0.219 0.464s-0.352 0.171-0.603 0.171c-0.004 0-0.010 0-0.015 0-0.168 0-0.328-0.035-0.473-0.099l0.008 0.003c-0.261-0.098-0.443-0.346-0.443-0.635 0-0.005 0-0.011 0-0.016v0.001h0.469c0 0.251 0.155 0.373 0.453 0.373 0.107 0 0.197-0.021 0.261-0.064 0.059-0.053 0.091-0.112 0.091-0.192zM26.235 21.68h-0.699v1.899h-0.469v-1.899h-0.693v-0.373h1.856v0.373zM27.867 22.587h-0.896v0.613h1.056v0.373h-1.525v-2.272h1.52v0.379h-1.051v0.544h0.896v0.368zM29.147 22.747h-0.373v0.832h-0.475v-2.277h0.848c0.267 0 0.475 0.059 0.619 0.181 0.149 0.117 0.219 0.288 0.219 0.507 0 0.16-0.032 0.283-0.101 0.389-0.064 0.107-0.165 0.187-0.304 0.245l0.491 0.933v0.021h-0.501l-0.427-0.832zM28.773 22.363h0.373c0.117 0 0.213-0.027 0.272-0.085 0.060-0.058 0.097-0.139 0.097-0.229 0-0.008-0-0.015-0.001-0.022l0 0.001c0-0.107-0.027-0.192-0.091-0.251-0.059-0.064-0.155-0.096-0.277-0.096h-0.373v0.683zM31.611 22.773v0.8h-0.469v-2.272h0.885c0.171 0 0.32 0.032 0.453 0.096 0.128 0.059 0.229 0.149 0.299 0.267 0.069 0.112 0.107 0.245 0.107 0.389 0 0.224-0.080 0.4-0.235 0.533-0.149 0.123-0.363 0.187-0.629 0.187h-0.411zM31.611 22.4h0.416c0.123 0 0.219-0.032 0.283-0.091 0.069-0.059 0.101-0.144 0.101-0.251 0-0.003 0-0.007 0-0.011 0-0.099-0.039-0.189-0.102-0.256l0 0c-0.066-0.066-0.158-0.107-0.259-0.107-0.003 0-0.005 0-0.008 0h-0.432v0.709zM34.576 22.592h-0.901v0.608h1.056v0.373h-1.525v-2.272h1.52v0.379h-1.051v0.544h0.901v0.368zM36.752 21.685h-0.699v1.893h-0.469v-1.899h-0.688v-0.373h1.856v0.373zM38.389 22.592h-0.907v0.608h1.061v0.373h-1.531v-2.272h1.52v0.379h-1.040v0.544h0.901v0.368zM39.659 22.747h-0.373v0.832h-0.469v-2.277h0.848c0.267 0 0.48 0.059 0.624 0.181 0.144 0.117 0.213 0.288 0.213 0.507 0 0.16-0.032 0.283-0.096 0.389-0.069 0.107-0.171 0.187-0.309 0.245l0.496 0.933v0.021h-0.507l-0.427-0.832zM39.285 22.363h0.379c0.117 0 0.213-0.027 0.277-0.085 0.060-0.058 0.097-0.139 0.097-0.229 0-0.008-0-0.015-0.001-0.022l0 0.001c0-0.107-0.032-0.192-0.096-0.251-0.053-0.064-0.149-0.096-0.277-0.096h-0.373v0.683zM42.043 22.981c0-0.091-0.032-0.16-0.096-0.203-0.097-0.063-0.208-0.114-0.328-0.147l-0.008-0.002c-0.16-0.053-0.293-0.107-0.384-0.16-0.261-0.139-0.389-0.325-0.389-0.56 0-0.128 0.032-0.235 0.107-0.331 0.064-0.096 0.165-0.171 0.293-0.229 0.133-0.053 0.277-0.080 0.437-0.080s0.309 0.032 0.437 0.091c0.128 0.053 0.224 0.139 0.293 0.251 0.069 0.107 0.107 0.229 0.107 0.363h-0.469c0-0.107-0.032-0.187-0.096-0.24-0.069-0.057-0.157-0.091-0.254-0.091-0.008 0-0.016 0-0.024 0.001l0.001-0c-0.007-0-0.016-0.001-0.025-0.001-0.091 0-0.175 0.028-0.244 0.076l0.001-0.001c-0.058 0.042-0.096 0.11-0.096 0.187 0 0.002 0 0.004 0 0.006v-0c0 0.075 0.037 0.133 0.107 0.187 0.080 0.048 0.187 0.096 0.336 0.139 0.267 0.080 0.459 0.181 0.581 0.299s0.181 0.267 0.181 0.443c0 0.197-0.075 0.352-0.224 0.464s-0.347 0.171-0.603 0.171c-0.004 0-0.010 0-0.015 0-0.168 0-0.328-0.035-0.473-0.099l0.008 0.003c-0.261-0.098-0.443-0.346-0.443-0.635 0-0.005 0-0.011 0-0.016v0.001h0.475c0 0.251 0.149 0.373 0.448 0.373 0.112 0 0.203-0.021 0.267-0.064 0.059-0.053 0.091-0.112 0.091-0.192z"></path>
</symbol>
<symbol id="icon-mobile" viewBox="0 0 20 32">
<path d="M17 0h-14c-1.654 0-3 1.346-3 3v26c0 1.654 1.346 3 3 3h14c1.654 0 3-1.346 3-3v-26c0-1.654-1.346-3-3-3zM3 2h14c0.552 0 1 0.448 1 1v21h-16v-21c0-0.552 0.448-1 1-1zM17 30h-14c-0.552 0-1-0.448-1-1v-3h16v3c0 0.552-0.448 1-1 1z"></path>
</symbol>
<symbol id="icon-pc" viewBox="0 0 41 32">
<path d="M2.073 31.933h33.168c1.145 0 2.073-0.928 2.073-2.073v-2.764c0-1.145-0.928-2.073-2.073-2.073h-0.691v-17.232l3.925-3.718c0.911 0.449 2.014 0.176 2.61-0.647s0.513-1.955-0.198-2.681c-0.711-0.726-1.841-0.834-2.677-0.256s-1.132 1.675-0.703 2.595l-2.957 2.803v-1.594c0-1.145-0.928-2.073-2.073-2.073h-27.64c-1.145 0-2.073 0.928-2.073 2.073v20.73h-0.691c-1.145 0-2.073 0.928-2.073 2.073v2.764c0 1.145 0.928 2.073 2.073 2.073zM39.387 1.529c0.382 0 0.691 0.309 0.691 0.691s-0.309 0.691-0.691 0.691c-0.382 0-0.691-0.309-0.691-0.691s0.309-0.691 0.691-0.691zM4.146 4.293c0-0.382 0.309-0.691 0.691-0.691h27.64c0.382 0 0.691 0.309 0.691 0.691v2.902l-1.382 1.313v-2.833c0-0.382-0.309-0.691-0.691-0.691h-24.876c-0.382 0-0.691 0.309-0.691 0.691v17.275c0 0.382 0.309 0.691 0.691 0.691h24.876c0.382 0 0.691-0.309 0.691-0.691v-12.541l1.382-1.309v15.923h-29.022v-20.73zM10.365 13.276c-0.935-0.003-1.756 0.62-2.004 1.521s0.136 1.857 0.94 2.334c0.804 0.477 1.828 0.357 2.499-0.293l2.402 1.205c0.090 0.046 0.196 0.073 0.309 0.073 0.205 0 0.389-0.089 0.516-0.231l0.001-0.001 5.106-5.744 5.019 3.761c0.114 0.086 0.258 0.138 0.414 0.138 0.184 0 0.351-0.072 0.475-0.189l-0 0 4.362-4.132v10.54h-23.494v-15.893h23.494v3.449l-4.889 4.63-5.061-3.794c-0.287-0.215-0.692-0.175-0.931 0.094l-5.176 5.824-1.935-0.968c0.013-0.073 0.023-0.159 0.026-0.247l0-0.004c0-1.145-0.928-2.073-2.073-2.073zM11.056 15.349c0 0.382-0.309 0.691-0.691 0.691s-0.691-0.309-0.691-0.691c0-0.382 0.309-0.691 0.691-0.691s0.691 0.309 0.691 0.691zM15.202 26.405h6.91v0.691c0 0.382-0.309 0.691-0.691 0.691h-5.528c-0.382 0-0.691-0.309-0.691-0.691v-0.691zM1.382 27.096c0-0.382 0.309-0.691 0.691-0.691h11.747v0.691c0 1.145 0.928 2.073 2.073 2.073h5.528c1.145 0 2.073-0.928 2.073-2.073v-0.691h11.747c0.382 0 0.691 0.309 0.691 0.691v2.764c0 0.382-0.309 0.691-0.691 0.691h-33.168c-0.382 0-0.691-0.309-0.691-0.691v-2.764z"></path>
</symbol>
<symbol id="icon-people" viewBox="0 0 29 32">
<path d="M28.359 13.624c-0.321-0.432-0.802-0.73-1.353-0.807l-0.011-0.001c-0.087-0.013-0.188-0.021-0.291-0.021-0.471 0-0.905 0.16-1.251 0.428l0.005-0.003-1.432 1.102-2.182 1.626-1.558-0.619c2.78-1.249 4.721-4.024 4.721-7.255 0-4.386-3.583-7.953-7.989-7.953s-7.984 3.567-7.984 7.953c0 1.595 0.472 3.069 1.285 4.317l-3.179-0.031-0.026 0.005c-0.063 0-0.121 0.016-0.178 0.037l-0.042 0.016-0.026 0.005-3.709 1.836-2.172 1.044c-0.581 0.368-0.961 1.007-0.961 1.734 0 1.13 0.916 2.046 2.046 2.046 0.347 0 0.675-0.087 0.961-0.239l-0.011 0.005 1.59-0.845 2.597-1.343 1.558-0.011-7.78 7.753c-0.351 0.343-0.569 0.822-0.569 1.351s0.218 1.008 0.568 1.35l0 0c0.346 0.346 0.825 0.56 1.353 0.56s1.007-0.214 1.353-0.56v0l1.5-1.506 1.999-1.49 1.033 1.028-2.020 2.014-1.537 1.527c-0.353 0.343-0.571 0.823-0.571 1.353s0.219 1.010 0.571 1.353l0 0c0.346 0.346 0.825 0.56 1.353 0.56s1.007-0.214 1.353-0.56v0l3.997-3.982 1.165-1.154h-0.005l0.021-0.021 5.928-6.494 3.987 0.572c0.022 0.003 0.047 0.005 0.072 0.005 0.082 0 0.16-0.017 0.231-0.048l-0.004 0.001 0.058-0.026c0.021-0.011 0.047-0.016 0.068-0.031l3.688-2.445 0.031-0.037 0.047-0.026 1.458-1.369c0.398-0.374 0.645-0.904 0.645-1.491 0-0.46-0.152-0.884-0.408-1.226l0.004 0.005zM2.445 17.768c-0.125 0.081-0.279 0.13-0.443 0.13-0.454 0-0.822-0.368-0.822-0.822 0-0.289 0.15-0.544 0.376-0.691l0.003-0.002 1.511-0.724 0.362 1.060 0.152 0.446-1.138 0.603zM6.458 15.669l-1.778 0.918-0.294-0.85-0.21-0.614 2.329-1.154-0.047 1.705zM23.785 8.079c0 1.054-0.252 2.046-0.687 2.938l-4.8-2.177c-0.049-0.661-0.391-1.232-0.896-1.59l-0.007-0.004 1.679-5.576c2.728 0.866 4.711 3.41 4.711 6.41zM10.256 8.079c0.013-3.722 3.033-6.734 6.757-6.734 0.305 0 0.606 0.020 0.9 0.059l-0.035-0.004-1.647 5.456-0.063-0.005c0 0-0 0-0 0-1.184 0-2.145 0.957-2.151 2.14v0.001c0.014 1.177 0.972 2.126 2.151 2.126 0.788 0 1.477-0.424 1.852-1.056l0.005-0.010 4.428 2.014c-1.245 1.673-3.217 2.746-5.44 2.746-3.724 0-6.745-3.011-6.762-6.731v-0.002zM17.091 8.997c0 0.511-0.415 0.926-0.926 0.926s-0.926-0.415-0.926-0.926v0c0-0.504 0.42-0.918 0.929-0.918s0.923 0.414 0.923 0.918zM2.833 26.235c-0.268 0.268-0.708 0.262-0.981 0-0.125-0.124-0.203-0.295-0.203-0.485s0.078-0.362 0.203-0.485l1.102-1.102 0.981 0.976-1.107 1.091zM6.521 30.515c-0.268 0.273-0.708 0.273-0.981 0-0.124-0.123-0.2-0.294-0.2-0.483s0.077-0.359 0.2-0.483v0l1.102-1.102 0.981 0.971-1.102 1.102zM10.518 26.539l-2.030 2.020-0.976-0.976 2.025-2.009c0.047-0.052 0.073-0.105 0.105-0.157l0.026-0.052c0.021-0.042 0.026-0.094 0.031-0.142 0-0.031 0.016-0.052 0.016-0.084 0-0.042-0.016-0.084-0.021-0.121l-0.021-0.11c-0.026-0.058-0.063-0.105-0.105-0.157l-0.031-0.047-1.847-1.836c-0.016-0.021-0.042-0.026-0.063-0.042-0.037-0.026-0.068-0.052-0.105-0.068-0.030-0.014-0.065-0.027-0.101-0.036l-0.004-0.001c-0.033-0.012-0.072-0.021-0.112-0.026l-0.003-0c-0.037 0-0.073 0-0.11 0.011-0.042 0-0.079 0.011-0.121 0.021-0.037 0.011-0.073 0.031-0.105 0.052-0.026 0.011-0.052 0.016-0.073 0.031l-2.035 1.521-1.033-1.033 2.754-2.738 5.005 4.926-1.065 1.049zM18.34 18.487h-0.052c-0.008-0-0.018-0.001-0.028-0.001-0.157 0-0.3 0.060-0.408 0.158l0-0-0.047 0.037-5.393 5.902-4.963-4.879 3.252-3.237c0.112-0.111 0.181-0.265 0.181-0.435 0-0.339-0.275-0.614-0.614-0.614-0.003 0-0.006 0-0.009 0h0l-2.544 0.016 0.031-1.847 3.562 0.031c1.45 1.487 3.473 2.409 5.711 2.409 0.522 0 1.032-0.050 1.526-0.146l-0.050 0.008c0.042 0.037 0.089 0.073 0.147 0.1l2.765 1.102 0.173 0.871 0.21 1.012-3.452-0.488zM22.977 18.691l-0.357-1.789 1.658-1.238 0.435 0.577 0.651 0.86-2.387 1.59zM27.289 15.439l-0.965 0.902-1.065-1.416 0.95-0.734c0.139-0.107 0.316-0.171 0.508-0.171 0.043 0 0.085 0.003 0.126 0.009l-0.005-0.001c0.404 0.057 0.711 0.401 0.711 0.816 0 0.237-0.1 0.45-0.26 0.6l-0 0z"></path>
</symbol>
<symbol id="icon-rtg" viewBox="0 0 30 32">
<path d="M29.861 22.098l-8.443-8.503 0.937-4.617c0.242 0.091 0.498 0.142 0.759 0.146h0.005c0.006 0 0.014 0 0.022 0 1.192 0 2.158-0.966 2.158-2.158s-0.966-2.158-2.158-2.158c-1.192 0-2.158 0.966-2.158 2.158 0 0.259 0.046 0.507 0.129 0.737l-0.005-0.015-4.955 0.603-8.091-8.133c-0.097-0.098-0.231-0.159-0.379-0.16h-0c-0.137 0-0.274 0.055-0.37 0.155l-1.513 1.504c-0.21 0.21-0.21 0.549 0 0.754l0.814 0.823c-1.143 2.062-1.816 4.522-1.816 7.14 0 4.106 1.656 7.824 4.336 10.525l-0.001-0.001c0.046 0.046 0.091 0.073 0.146 0.101-0.032 0.183-0.050 0.366-0.050 0.549v6.185h-6.4c0 0 0 0 0 0-1.473 0-2.667 1.193-2.67 2.665v1.065c0 0.297 0.238 0.535 0.535 0.535h24.535c0.293 0 0.53-0.238 0.53-0.535v-1.065c-0.003-1.471-1.194-2.663-2.665-2.665h-6.4v-2.743c0.915 0.2 1.966 0.315 3.043 0.315 2.581 0 5.008-0.659 7.123-1.817l-0.077 0.039 0.818 0.823c0.096 0.101 0.233 0.16 0.375 0.16 0.137 0 0.274-0.059 0.375-0.155l1.509-1.509c0.21-0.206 0.21-0.544 0-0.75zM22.363 6.235c0.193-0.192 0.458-0.311 0.752-0.311 0.588 0 1.065 0.477 1.065 1.065s-0.476 1.064-1.063 1.065h-0c-0.001 0-0.001 0-0.002 0-0.588 0-1.065-0.477-1.065-1.065 0-0.297 0.122-0.566 0.318-0.759l0-0zM21.111 9.737l-0.599 2.944-1.175-1.179 1.774-1.765zM20.503 8.837l-1.92 1.906-1.486-1.49 3.406-0.416zM23.090 28.8c0.884 0 1.6 0.716 1.6 1.6v0 0.535h-23.465v-0.535c0-0.884 0.716-1.6 1.6-1.6v0h20.261zM15.625 26.665v1.070h-5.339v-1.070h5.335zM10.286 25.6v-4.055c0-1.294 1.198-2.345 2.665-2.345 1.472 0 2.67 1.051 2.67 2.345v4.055h-5.335zM16.686 23.904v-2.359c0-1.879-1.673-3.41-3.735-3.41-0.018-0-0.040-0-0.062-0-1.351 0-2.537 0.705-3.211 1.768l-0.009 0.016c-2.359-2.481-3.809-5.845-3.809-9.548 0-2.314 0.567-4.496 1.569-6.415l-0.036 0.077 18.606 18.711c-1.822 0.946-3.978 1.501-6.264 1.501-1.080 0-2.132-0.124-3.141-0.358l0.093 0.018zM27.977 23.218l-0.754-0.754-20.302-20.425 0.754-0.75 21.061 21.179-0.759 0.75z"></path>
</symbol>
<symbol id="icon-Time" viewBox="0 0 31 32">
<path d="M30.839 15.301c-0.001-8.452-6.855-15.303-15.308-15.301s-15.303 6.855-15.301 15.308c0.002 6.788 4.422 12.543 10.541 14.545l0.108 0.031c0.061 0.019 0.123 0.029 0.187 0.029 0.12 0 0.238-0.032 0.342-0.094 0.135-0.080 0.236-0.207 0.283-0.357l3.865-12.25c1.054-0.004 1.906-0.859 1.906-1.913 0-1.056-0.856-1.913-1.913-1.913-0.303 0-0.59 0.071-0.845 0.196l0.011-0.005-5.106-5.107c-0.114-0.11-0.271-0.179-0.443-0.179-0.352 0-0.638 0.286-0.638 0.638 0 0.172 0.068 0.328 0.179 0.443l-0-0 5.103 5.109c-0.121 0.241-0.191 0.525-0.191 0.825 0 0.602 0.283 1.137 0.724 1.481l0.004 0.003-3.683 11.673c-7.278-2.681-11.004-10.754-8.324-18.032s10.754-11.004 18.032-8.323c7.278 2.681 11.004 10.754 8.323 18.032-1.345 3.581-4.003 6.406-7.374 7.938l-0.088 0.036-0.398-1.874c-0.063-0.291-0.318-0.506-0.624-0.506-0.164 0-0.313 0.062-0.426 0.163l0.001-0.001-3.837 3.426c-0.132 0.117-0.214 0.287-0.214 0.477 0 0.283 0.185 0.524 0.441 0.606l0.005 0.001 4.899 1.563c0.058 0.020 0.126 0.031 0.196 0.031 0.352 0 0.637-0.285 0.637-0.637 0-0.047-0.005-0.093-0.015-0.138l0.001 0.004-0.391-1.839c5.528-2.374 9.328-7.772 9.328-14.057 0-0.011 0-0.023-0-0.034v0.002zM15.535 14.664c0.352 0 0.638 0.286 0.638 0.638s-0.286 0.638-0.638 0.638v0c-0.352 0-0.638-0.286-0.638-0.638s0.286-0.638 0.638-0.638v0zM17.635 29.528l2.184-1.948 0.603 2.84-2.787-0.892z"></path>
</symbol>
<symbol id="icon-twiter" viewBox="0 0 36 32">
<path d="M35.556 4.976c-1.322 0.58-2.731 0.964-4.2 1.151 1.511-0.902 2.665-2.32 3.207-4.029-1.409 0.84-2.965 1.433-4.622 1.764-1.338-1.424-3.244-2.307-5.324-2.307-4.036 0-7.284 3.276-7.284 7.291 0 0.578 0.049 1.133 0.169 1.662-6.060-0.296-11.422-3.2-15.024-7.624-0.629 1.091-0.998 2.34-0.998 3.684 0 2.524 1.3 4.762 3.238 6.058-1.171-0.022-2.32-0.362-3.293-0.898v0.080c0 3.542 2.527 6.484 5.84 7.162-0.593 0.162-1.24 0.24-1.911 0.24-0.467 0-0.938-0.027-1.38-0.124 0.944 2.887 3.624 5.009 6.811 5.078-2.48 1.94-5.629 3.109-9.038 3.109-0.598 0-1.171-0.027-1.744-0.1 3.229 2.082 7.056 3.271 11.182 3.271 13.413 0 20.747-11.111 20.747-20.742 0-0.322-0.011-0.633-0.027-0.942 1.447-1.027 2.662-2.309 3.653-3.784z"></path>
</symbol>
</defs>
</svg>
